<?xml version="1.0" encoding="UTF-8"?>
<svg id="Calque_1" data-name="Calque 1" xmlns="http://www.w3.org/2000/svg" xmlns:xlink="http://www.w3.org/1999/xlink" viewBox="0 0 1536 1024">
  <defs>
    <style>
      .cls-1 {
        fill: url(#Dégradé_sans_nom_6);
      }

      .cls-2 {
        fill: url(#Dégradé_sans_nom_6-4);
      }

      .cls-3 {
        fill: url(#Dégradé_sans_nom_6-3);
      }

      .cls-4 {
        fill: url(#Dégradé_sans_nom_6-5);
      }

      .cls-5 {
        fill: #113e69;
      }

      .cls-6 {
        fill: url(#Dégradé_sans_nom_6-6);
      }

      .cls-7 {
        fill: url(#Dégradé_sans_nom_6-2);
      }
    </style>
    <linearGradient id="Dégradé_sans_nom_6" data-name="Dégradé sans nom 6" x1="317.74" y1="515.02" x2="331.59" y2="515.02" gradientUnits="userSpaceOnUse">
      <stop offset="0" stop-color="#000"/>
      <stop offset="1" stop-color="#000"/>
    </linearGradient>
    <linearGradient id="Dégradé_sans_nom_6-2" data-name="Dégradé sans nom 6" x1="317.43" y1="383.93" x2="329.96" y2="383.93" xlink:href="#Dégradé_sans_nom_6"/>
    <linearGradient id="Dégradé_sans_nom_6-3" data-name="Dégradé sans nom 6" x1="295.96" y1="382.89" x2="309.96" y2="382.89" xlink:href="#Dégradé_sans_nom_6"/>
    <linearGradient id="Dégradé_sans_nom_6-4" data-name="Dégradé sans nom 6" x1="296.32" y1="509.9" x2="309.96" y2="509.9" xlink:href="#Dégradé_sans_nom_6"/>
    <linearGradient id="Dégradé_sans_nom_6-5" data-name="Dégradé sans nom 6" x1="276.15" y1="446" x2="288.96" y2="446" xlink:href="#Dégradé_sans_nom_6"/>
    <linearGradient id="Dégradé_sans_nom_6-6" data-name="Dégradé sans nom 6" x1="255.06" y1="446" x2="267.87" y2="446" xlink:href="#Dégradé_sans_nom_6"/>
  </defs>
  <g>
    <path class="cls-5" d="M670.96,516.38c-14.48,16.92-36.11,22.73-57.26,14.76-19.26-7.26-27.14-31.65-14.71-48.23,15.2-20.29,47.65-17.85,69.97-14.52,2.82-35.59-40.37-32.56-60.98-18-1.47-6.06-6.23-11.69-8.27-17.34-1.14-3.15,7.79-6.67,10.58-7.84,25.72-10.78,69.5-11.8,80.95,19.41,5.16,14.07,3.95,30.08,2.72,44.76-1.87-.72-3.49-7.95-5.49-7.97-2.83-.04-.54,4.93-.04,6.02,8.64,18.54,30.81,40.36,51.15,44.86,2.32.51,1.24-1.5,1.38-2.87-9.99-2.05-18.95-7.55-26.58-14.02-1.03-1.88,5.75-9.72,7.08-11.99,9.79,10.49,44.58,20.53,52.92,5.9,5.55-9.75-4.65-14.53-12.15-17.68-17.86-7.51-45.71-9.72-49-34-6.23-45.94,59.67-44.39,84.66-24.59l-9.01,17.3c-5.03-1.27-8.75-4.81-13.65-6.71-9.04-3.49-30.78-7.16-35.33,4.19-5.61,13.99,23.14,18.57,32.05,22.1,6.77,2.68,26.26,12.05,27.03,20.04.7,7.24-21.25,25.33-27.48,29.47-4.64,3.08-12.91,6.25-16.48,9.53-1.55,1.43-.78,1.17.47,2.45,12.57-4.87,26.8-14.03,35.99-23.99,1.67-1.81,9.68-12.37,10.11-14,.72-2.7-4.66-6.9-1.51-12.39,3.34-5.81,10.21-1.57,12.15-5.85,1.23-2.7,1.09-8.41,2.03-11.97,16.79-63.61,105.19-56.66,108.74,11.66.19,3.72.82,9.84-1.54,12.54h-81.5c4.59,31.82,44.05,35.95,64.65,16.08l8.28,8.28c-.37,2.11-11.15,9.16-13.6,10.46-3.51,1.85-16.48,7.18-19.82,7.18h-24.5c-.87,2.68,3.93,2.85,5.51,2.99,50.61,4.6,58.5-26.96,84.08-59.91,3.78-4.86,7.96-9.35,12.41-13.6l-2.48-2.48-15.51,18v-52h25l1.01,14c18.53-23.09,64.26-23.28,74.04,7.99,3.55-.8,5.78-2.13,9.02.44,5.29,4.2.88,8.23,2.4,11.54.97,2.1,10.66,11.04,13.05,13,13.37,10.95,36.39,21.22,53.84,20.68,1.73-.05,3.23-.63,2.63-2.65-17.09-1.12-32.81-5.99-46.91-15.6-9.54-6.5-16.35-10.72-14.84-23.64,4.11-35.18,61.37-34.64,82.32-15.77l-8.58,18c-9.52-5.7-18.98-10.3-30.49-10.07-9.08.18-24.03,5.82-16.94,17.02,4.75,7.5,33.37,12.38,43.43,17.56,4.32,2.22,7.84,5.53,11.75,8.33l16.22-2.89c-4.84-44.42,39.05-72.72,79.01-55.42,14.64,6.34,31.04,27.77,31.04,43.96v17.5h-84c4.91,27.9,35.54,36.65,58.34,22.84,2.05-1.24,6.3-6.6,8.64-5.41,1.43.73,11.88,11.84,11.78,13.08-32.42,31.59-95.24,19.29-103.83-28.44l-12.94,1.94c14.22,53-60.41,51.71-88.88,29.87-1.53-2.59,9.48-14.09,9.9-17.88,11.79,9.61,35.31,18.54,49.68,11.2,6.68-3.41,10.19-12.22,5.16-18.56-3.4-4.28-7.92-2-12.35-2.65-17.92-2.67-36.62-11.92-50.04-23.96-2.17-1.94-8.58-9.97-9.48-10.52-1.89-1.15-5.65-.96-7,.99v73.5h-25v-66.5c0-.43-1.2-6.7-1.44-7.56-4.26-15.25-23.38-13.92-35.24-9.12-10.36,4.19-13.41,9.66-14.3,20.7-1.63,20.09,1.18,42.19-.02,62.48h-25v-47s-21.46,28.04-21.46,28.04c-.04,6.6-9.78,12.04-15.22,14.78-10.48,5.28-26.11,8.83-37.81,8.16-3.15-.18-8.33-2.01-11.07-1.88-2.94.15-8.64,6.98-13.49-.55-5.07-7.88-4.83-5.8-11.42-11.58-5.36-4.7-10.07-11.07-13.94-17.06-1.86-2.88-7.21-17.77-11.69-12.29-2.87,4.18-1.26,8.61-1.91,12.86-2.84,18.75-18.01,26.58-35.51,28.49-2.48.27-10.26-.56-11.35.15-.7.45-.59,5.43-6.69,5.83s-6.66-4.73-9.15-5.76c-2.34-.96-6.4-1.18-9.55-2.45-14.27-5.77-26.56-17.25-35.24-29.76-1.66.82.5,2.92.5,3.5v26.5h-24v-16ZM1035.95,447.4c-16.07-9.03-50.93-13.23-65.93-1.46-2.7,2.12-2.79,4.82.6,3.62,2.9-1.02,5.68-3.19,8.8-4.22,13.67-4.53,29.65-3.83,43.54-.46,4.26,1.03,8.25,3.49,11.59,4.42,1.86.52,1.5-.49,1.4-1.9ZM898.96,470.38c-1.51-40.13-58.52-39.59-60,0h60ZM1241.96,469.38c-5.17-37.46-56.42-38.96-60.95-.48l2.01,1.09c4.46-1.48,13.22-.8,17.15-2.65,1.94-.91,2.01-5.03,7.29-5.02,7.31,0,6.95,7.05,7.5,7.05h27ZM1040.21,454.13c4.36,4.4,10.95-4.1,5.76-7.26-4.8-2.92-9.54,3.45-5.76,7.26ZM959.62,447.54c-3.48,1.22-3.41,8.08.85,8.87,9.16,1.7,8.25-12.06-.85-8.87ZM1203.1,473.24c1.55,2.47,11.51,1.36,8.38-4.86-2.56-5.08-12.07-1.02-8.38,4.86ZM828.71,471.63c-5.16-5.17-12.89,5.24-5.03,7.58,5.49,1.63,8.28-4.33,5.03-7.58ZM1200.95,470.39l-67.98,17.49c1.25,1.83,2.43,1.58,4.36,1.43,12.91-.98,48.51-10.94,61.1-15.95,1.55-.62,2.9-.8,2.51-2.98ZM679.2,480.13c3.97,4.03,11.16-2.37,6.77-7.27s-11.57,2.4-6.77,7.27ZM639.74,483.66c-30.99,3.71-26.62,35.97,3.6,33.6,16.57-1.3,27.18-14.63,26.2-30.92-9.31-2.71-20.15-3.84-29.79-2.68ZM1125.68,484.56c-6.6,1.94-3.24,12.02,4.28,8.32,4.08-2.01,2.24-10.23-4.28-8.32ZM841.96,526.37c-4.49-7.12-11.13-11.01-16.41-18.08-2.23-2.98-10.93-19.81-12.09-19.89-2.58-.18-.37,4.95.03,5.96,4.63,11.82,16.78,26.69,28.47,32.01ZM845.67,524.56c-7.14,2.12,1.34,13.95,6.38,6.35,2.21-3.34-2.23-7.59-6.38-6.35ZM744.09,529.51c-3.92,6.24,9.31,10.53,8.63,2.53-.41-4.77-7.58-4.21-8.63-2.53Z"/>
    <path class="cls-5" d="M478.95,532.39l-1.01-13c-21.05,23.86-78.94,21.24-77.91-18.34.76-29.48,31.48-36.44,55.47-35.7,2.38.07,21.24,3.11,21.48,1.46,3.44-34.26-41.14-31.88-60.52-17.44l-9.41-18.32c20.31-15.84,71.16-19.36,87.35,3.4,12.41,17.44,6.84,63,7.52,85.48.09,2.92,2.66,11.19.1,13.04l-23.07-.58ZM451.75,482.68c-41.3,2.22-29.47,43.1,6.23,33.22,13.87-3.84,22.04-16.2,19.55-30.59-1.5-2.08-21.94-2.84-25.77-2.63Z"/>
    <path d="M552.96,388.38v34h28c.61,6.96,2.16,14.14,0,21h-26.5l-1.5,1.5v58c0,3.05,3.36,8.28,6.29,9.71,8.66,4.22,16.67-.11,24.71-3.21v21c-17.32,5.94-47.14,8.07-54.06-13.44-.41-1.29-1.94-7.27-1.94-8.06v-64l-1.5-1.5h-17.5v-21h19v-34h25Z"/>
    <path d="M337.96,526.38v-30c15.08-4.71,23-23.68,24.05-38.45,1.47-20.91-2.45-47.67-24.05-56.55v-34c43.37,13.29,59.17,58.17,51.71,100.21-4.9,27.56-23.62,52.4-51.71,58.79Z"/>
  </g>
  <rect class="cls-1" x="317.74" y="504.52" width="13.85" height="21"/>
  <rect class="cls-7" x="317.43" y="367.47" width="12.53" height="32.91"/>
  <rect class="cls-3" x="295.96" y="367.39" width="14" height="30.99"/>
  <rect class="cls-2" x="296.32" y="494.77" width="13.64" height="30.26"/>
  <rect class="cls-4" x="276.15" y="367.21" width="12.81" height="157.58"/>
  <rect class="cls-6" x="255.06" y="367.13" width="12.81" height="157.74"/>
</svg>
